<svg xmlns="http://www.w3.org/2000/svg" viewBox="0 0 64 64" id="award"><path fill="#222" d="m22.23 53.64-6.16 6.15a1 1 0 0 1-1.7-.72l.08-7.84a1.47 1.47 0 0 0-.45-1.07 1.4 1.4 0 0 0-1.08-.44l-7.82.08a1 1 0 0 1-.72-1.7l4.69-4.69A6 6 0 0 0 13 46.49l4.72 1.08 2.54 4.13a5.74 5.74 0 0 0 1.97 1.94ZM34.1 23.72 32 19.46l-2.1 4.26a1.5 1.5 0 0 1-1.13.82l-4.7.68 3.4 3.31a1.5 1.5 0 0 1 .43 1.33l-.8 4.68 4.2-2.21a1.53 1.53 0 0 1 1.4 0l4.2 2.21-.8-4.68a1.5 1.5 0 0 1 .43-1.33l3.4-3.31-4.7-.68a1.5 1.5 0 0 1-1.13-.82Zm15.42 4A17.52 17.52 0 1 1 32 10.21a17.53 17.53 0 0 1 17.52 17.52Zm-4.94-4a1.51 1.51 0 0 0-1.21-1l-6.93-1-3.09-6.27a1.5 1.5 0 0 0-2.7 0l-3.09 6.27-6.93 1a1.5 1.5 0 0 0-.83 2.56l5 4.88L23.63 37a1.5 1.5 0 0 0 2.18 1.58L32 35.35l6.19 3.26a1.52 1.52 0 0 0 1.58-.11 1.49 1.49 0 0 0 .6-1.47l-1.18-6.9 5-4.88a1.52 1.52 0 0 0 .39-1.54Zm-.36 21.63L41.4 50a3 3 0 0 1-3.64 1.21l-5.06-2.1a1.58 1.58 0 0 0-1.17 0l-5 2.15a3 3 0 0 1-3.66-1.16L20 45.47a1.48 1.48 0 0 0-.94-.68l-5.34-1.22a3 3 0 0 1-2.28-3.1l.4-5.47a1.55 1.55 0 0 0-.36-1.11l-3.61-4.11a3 3 0 0 1 0-3.84l3.56-4.17a1.55 1.55 0 0 0 .36-1.11l-.49-5.46a2.94 2.94 0 0 1 2.24-3.11l5.33-1.28a1.52 1.52 0 0 0 .93-.69l2.82-4.7a2.94 2.94 0 0 1 3.64-1.21l5.06 2.1a1.53 1.53 0 0 0 1.17 0l5-2.15a3 3 0 0 1 3.66 1.17L44 10a1.51 1.51 0 0 0 .94.68l5.34 1.22a3 3 0 0 1 2.31 3.1l-.43 5.47a1.51 1.51 0 0 0 .36 1.1l3.61 4.13a3 3 0 0 1 0 3.84l-3.56 4.16a1.55 1.55 0 0 0-.36 1.11l.49 5.46a3 3 0 0 1-2.24 3.12l-5.33 1.28a1.45 1.45 0 0 0-.91.67Zm8.3-17.61A20.52 20.52 0 1 0 32 48.24a20.55 20.55 0 0 0 20.52-20.51Zm2.42 15.69a6 6 0 0 1-3.76 2.87l-4.71 1.13L44 51.58a5.87 5.87 0 0 1-2.17 2.09l6.12 6.12a1 1 0 0 0 1.7-.72l-.08-7.84a1.47 1.47 0 0 1 .43-1.07 1.33 1.33 0 0 1 1.08-.44l7.84.08a1 1 0 0 0 .72-1.7Z" data-name="Quality"></path></svg>