<svg xmlns="http://www.w3.org/2000/svg" viewBox="0 0 64 64" id="download-data"><g data-name="data-technology-manage"><polygon points="34 48 34 35 30 35 30 48 26.081 48 32 55.399 37.919 48 34 48"></polygon><path d="M56,8a1,1,0,0,0-1-1H17.883l.637,1Z"></path><path d="M60,11a1,1,0,0,0-1-1H17.971a1,1,0,0,1-.844-.463l-3.38-5.31A1,1,0,0,0,13.112,4H5A1,1,0,0,0,4,5V55a5,5,0,0,0,10,0V47.981a9.962,9.962,0,0,1,0-15.962V20a4,4,0,0,1,4-4H58v2H18a2,2,0,0,0-2,2V30.837A9.946,9.946,0,0,1,19.883,30a13.984,13.984,0,0,1,25.908,4.673A7.926,7.926,0,0,1,49,34a8,8,0,0,1,0,16H42V48h7a6,6,0,1,0-3.458-10.9,1.014,1.014,0,0,1-1.014.084,1,1,0,0,1-.563-.846,11.984,11.984,0,0,0-22.614-4.858.982.982,0,0,1-.939.538l-.171-.01C20.161,32.006,20.082,32,20,32a8,8,0,0,0,0,16h2v2H20a9.929,9.929,0,0,1-4-.841V55a6.973,6.973,0,0,1-2.111,5H55a5.006,5.006,0,0,0,5-5ZM22,22H18V20h4Zm6,0H24V20h4ZM21.919,46H28V33h8V46h6.081L32,58.6Z"></path></g></svg>