<svg xmlns="http://www.w3.org/2000/svg" viewBox="0 0 64 64" id="hands"><path d="M28.3 22.53h-.03c-.61.02-1.26.73-1.35 2.2l-.02 5.37v1.49a.76.76 0 1 1-1.52 0v-6.55c0-.09.01-.16.02-.25 0-1.47.01-2.92.01-3.85-.12-1.81-1-2.59-1.77-2.6-.81.03-1.68.99-1.69 3.05V30.83a.76.76 0 1 1-1.52 0V18.48c-.14-2.06-1.15-3.02-2.06-2.96-.94.03-1.95 1.12-1.96 3.46v2.84c.01.15 0 .31 0 .47v8.4a.76.76 0 1 1-1.52 0V22.41c.06-1.16-.26-1.99-.9-2.39-.51-.31-1.18-.31-1.71 0-.36.21-.96.73-.93 1.89 0 2.43.01 12.58.01 15.18 1.77.25 4.33 1.19 6.83 4.18.27.32.22.8-.1 1.07s-.8.22-1.06-.1c-2.72-3.27-5.43-3.75-6.82-3.72h-.02c-1.03 0-1.9-.77-2.03-1.81-.47-3.82-1.35-6.23-2.6-7.16-.51-.38-1.1-.5-1.79-.38-.78.14.15 5.5.66 8.38.24 1.35.49 2.79.71 4.27.73 4.75 3.8 6.41 5.56 6.98.87.28 1.46 1.11 1.43 2.02L12 57.78h12.94c-.04-2.35 0-6.45.44-7.18.15-.25.4-.53.74-.93 1-1.16 2.68-3.1 3-5.44.36-2.65.54-5.8.54-9.62 0 0 .04-7.76.04-9.95-.08-1.39-.76-2.13-1.4-2.13zm31.9 6.65c-.7-.12-1.28 0-1.79.38-1.26.93-2.13 3.34-2.6 7.16a2.06 2.06 0 0 1-2.03 1.81h-.08c-1.4 0-4.08.5-6.77 3.72a.77.77 0 0 1-1.07.1.77.77 0 0 1-.1-1.07c2.5-3 5.05-3.92 6.83-4.17 0-2.59.01-12.75.01-15.17.03-1.19-.56-1.7-.92-1.91-.53-.31-1.17-.3-1.67 0-.63.39-.95 1.21-.89 2.32v8.36a.76.76 0 1 1-1.52 0V22.43c-.01-.22-.01-.43 0-.63V19c-.01-2.33-1.03-3.43-1.98-3.46-.93-.08-1.95.9-2.09 3.01v12.31a.76.76 0 1 1-1.52 0V21.4c0-2.06-.88-3.03-1.68-3.05h-.03c-.76 0-1.62.82-1.74 2.65 0 .9 0 2.33.01 3.79 0 .09.02.17.02.26v6.55a.76.76 0 1 1-1.52 0v-1.5l-.02-5.38c-.09-1.47-.74-2.17-1.35-2.19h-.03c-.63 0-1.32.74-1.41 2.18 0 2.15.04 9.9.04 9.9 0 3.82.18 6.97.54 9.63.32 2.35 1.99 4.29 2.99 5.44.34.4.59.69.74.93.44.73.47 4.82.44 7.18h12.94l-.13-6.96c-.03-.9.56-1.73 1.43-2.02 1.76-.57 4.82-2.24 5.56-6.98.23-1.47.48-2.91.71-4.26.53-2.89 1.46-8.25.68-8.39zM32.45 6.33a.273.273 0 0 0-.22-.12c-.05 0-.15.02-.22.12-1.53 2.29-2.45 4.14-2.45 4.93 0 1.47 1.2 2.67 2.67 2.67s2.67-1.2 2.67-2.67c0-.79-.92-2.64-2.45-4.93z"></path></svg>