<svg xmlns="http://www.w3.org/2000/svg" viewBox="0 0 16 16" id="laptop"><path fill="#231f20" d="M15 12V5.063A2.066 2.066 0 0 0 12.937 3H3.063A2.066 2.066 0 0 0 1 5.063V12H0v.971A1.03 1.03 0 0 0 1.029 14h13.85c.619 0 1.121-.502 1.121-1.121V12h-1Zm-6.017 0a1.01 1.01 0 0 1-1.006 1 1.01 1.01 0 0 1-1.006-1H5.332a4.009 4.009 0 0 1 2.66-1.02c.999 0 1.938.377 2.662 1.02H8.983ZM6.532 7.505c0-.822.669-1.491 1.491-1.491a1.492 1.492 0 1 1-1.491 1.491zM14 12h-1.986a5.01 5.01 0 0 0-3.91-2.012 2.49 2.49 0 0 0 2.411-2.483 2.493 2.493 0 0 0-2.491-2.491 2.494 2.494 0 0 0-2.492 2.491 2.49 2.49 0 0 0 2.386 2.481A5.017 5.017 0 0 0 3.97 12H2V5.063C2 4.478 2.478 4 3.063 4h9.873C13.522 4 14 4.478 14 5.063V12Z"></path></svg>